# xmcd CD database file
#
# Track frame offsets:
#	150
#	12310
#	20852
#	29102
#	38832
#	47872
#	58277
#	72160
#	84375
#	95795
#	103135
#	118895
#	133982
#	150375
#	162075
#	172145
#	183102
#
# Disc length: 2623 seconds
#
# Revision: 0
# Processed by: cddbd v1.5PL3 Copyright (c) Steve Scherf et al.
# Submitted via: CDex 1.51
#
DISCID=f60a3d11
DTITLE=Buddy Morrow and his Orchestra - Night Train
DYEAR=1900
DGENRE=Jazz
TTITLE0=Some of These Days
TTITLE1=Prelude to a Kiss
TTITLE2=Playin' Possum
TTITLE3=Speak Low
TTITLE4=I May Be Wrong
TTITLE5=Shuffle Off To Buffalo
TTITLE6=Please Mr. Sun (Vocal - Frankie Lester)
TTITLE7=You'd Better Love Me
TTITLE8=That Ever Lovin' Rag
TTITLE9='Deed I Do
TTITLE10=Soft Talk
TTITLE11=More
TTITLE12=Time After Time
TTITLE13=One Mint Julep
TTITLE14=Rosie's Room
TTITLE15=Dag's Blues
TTITLE16=Night Train
EXTD=
EXTT0=
EXTT1=
EXTT2=
EXTT3=
EXTT4=
EXTT5=
EXTT6=
EXTT7=
EXTT8=
EXTT9=
EXTT10=
EXTT11=
EXTT12=
EXTT13=
EXTT14=
EXTT15=
EXTT16=
PLAYORDER=
